Format : AVI
Format/Info : Audio Video Interleave
File size : 960 MiB
Duration : 1h 28mn
Overall bit rate : 1 522 Kbps
Writing application : VirtualDubMod 1.5.10.2 (build 2540/release)
Writing library : VirtualDub build 32842/release

Video
ID : 0
Format : MPEG-4 Visual
Format profile : Advanced Simple@L5
Format settings, BVOP : 2
Format settings, QPel : No
Format settings, GMC : No warppoints
Format settings, Matrix : Default (H.263)
Muxing mode : Packed bitstream
Codec ID : XVID
Codec ID/Hint : XviD
Duration : 1h 28mn
Bit rate : 1 384 Kbps
Width : 672 pixels
Height : 358 pixels
Display aspect ratio : 1.877
Frame rate : 25.000 fps
Color space : YUV
Chroma subsampling : 4:2:0
Bit depth : 8 bits
Scan type : Progressive
Compression mode : Lossy
Bits/(Pixel*Frame) : 0.230
Stream size : 873 MiB (91%)
Writing library : XviD 64

Audio
ID : 1
Format : MPEG Audio
Format version : Version 1
Format profile : Layer 3
Mode : Joint stereo
Mode extension : MS Stereo
Codec ID : 55
Codec ID/Hint : MP3
Duration : 1h 28mn
Bit rate mode : Constant
Bit rate : 128 Kbps
Channel(s) : 2 channels
Sampling rate : 44.1 KHz
Compression mode : Lossy
Stream size : 80.8 MiB (8%)
Alignment : Split accross interleaves
Interleave, duration : 40 ms (1.00 video frame)
Interleave, preload duration : 500 ms
Writing library : LAME3.98r
Encoding settings : -m j -V 4 -q 2 -lowpass 17 -b 128





 
http://www.imdb.com/title/tt1284575/




89524873606771859129.png


Users: (5,569 votes) 62 reviews | Critics: 140 reviews Metascore: 47/100 (based on 38 reviews from Metacritic.com)


A comedy centered around a foul-mouthed, junior high teacher who, after being dumped by her sugar daddy, begins to woo a colleague -- a move that pits her against a well-loved teacher.

Director: Jake Kasdan
Writers: Gene Stupnitsky, Lee Eisenberg
Stars: Cameron Diaz, Jason Segel and Justin Timberlake




95521316153253938506.png




37687703163110297221.png

23061276723342129660.png

86266814956378202548.png

59916824470505846846.png




Source Used



VIDEO: .............. Ochen.plohaya.ychilka.D.2011.TS..avi .....IMAGiNE ...... Thanks

AUDIO: .............. IMAGiNE ...................................................Thanks

Sample included so check it out as the source has a scroll/flicker so dont be moaning later/.........Usual filters just done what i can ..so


Enjoy





Greetz to IMAGiNE,Flawl3ss,DiLLoN,BDK,NOiR,TOXiC,THC,Ez,Rx,Boobyblue,TaRiQ786,BHRG
